<?xml version="1.0" encoding="UTF-8" standalone="no"?>
<?xml-stylesheet href="Numerics.dot.css" type="text/css"?>
<!DOCTYPE svg PUBLIC "-//W3C//DTD SVG 1.1//EN"
 "http://www.w3.org/Graphics/SVG/1.1/DTD/svg11.dtd">
<!-- Generated by graphviz version 2.43.0 (0)
 -->
<!-- Title: %3 Pages: 1 -->
<svg width="996pt" height="596pt"
 viewBox="0.00 0.00 995.52 596.00" xmlns="http://www.w3.org/2000/svg" xmlns:xlink="http://www.w3.org/1999/xlink">
<g id="graph0" class="graph" transform="scale(1 1) rotate(0) translate(4 592)">
<title>%3</title>
<!-- IOperatorEquatable -->
<g id="node1" class="node">
<title>IOperatorEquatable</title>
<path fill="#fef000" stroke="#ffb900" d="M166,-116C166,-116 55,-116 55,-116 49,-116 43,-110 43,-104 43,-104 43,-84 43,-84 43,-78 49,-72 55,-72 55,-72 166,-72 166,-72 172,-72 178,-78 178,-84 178,-84 178,-104 178,-104 178,-110 172,-116 166,-116"/>
<text text-anchor="start" x="55.32" y="-98.4" font-family="Helvetica,sans-Serif" font-weight="bold" font-size="12.00">IOperatorEquatable</text>
<text text-anchor="start" x="97.45" y="-82.8" font-family="Menlo" font-size="9.00">== !=</text>
</g>
<!-- IEquatable -->
<g id="node2" class="node">
<title>IEquatable</title>
<path fill="#fef000" stroke="#ffb900" d="M136.68,-36C136.68,-36 84.32,-36 84.32,-36 78.32,-36 72.32,-30 72.32,-24 72.32,-24 72.32,-12 72.32,-12 72.32,-6 78.32,0 84.32,0 84.32,0 136.68,0 136.68,0 142.68,0 148.68,-6 148.68,-12 148.68,-12 148.68,-24 148.68,-24 148.68,-30 142.68,-36 136.68,-36"/>
<text text-anchor="middle" x="110.5" y="-14.4" font-family="Helvetica,sans-Serif" font-weight="bold" font-size="12.00">IEquatable</text>
</g>
<!-- IOperatorEquatable&#45;&gt;IEquatable -->
<g id="edge1" class="edge">
<title>IOperatorEquatable&#45;&gt;IEquatable</title>
<path fill="none" stroke="#505050" stroke-width="1.5" d="M110.5,-64.29C110.5,-54.85 110.5,-44.64 110.5,-36.31"/>
<polygon fill="#505050" stroke="#505050" stroke-width="1.5" points="107.88,-64.49 110.5,-71.99 113.13,-64.49 107.88,-64.49"/>
</g>
<!-- IOperatorComparable -->
<g id="node3" class="node">
<title>IOperatorComparable</title>
<path fill="#fef000" stroke="#ffb900" d="M331,-116C331,-116 208,-116 208,-116 202,-116 196,-110 196,-104 196,-104 196,-84 196,-84 196,-78 202,-72 208,-72 208,-72 331,-72 331,-72 337,-72 343,-78 343,-84 343,-84 343,-104 343,-104 343,-110 337,-116 331,-116"/>
<text text-anchor="start" x="208.32" y="-98.4" font-family="Helvetica,sans-Serif" font-weight="bold" font-size="12.00">IOperatorComparable</text>
<text text-anchor="start" x="248.33" y="-82.8" font-family="Menlo" font-size="9.00">&lt; &lt;= &gt; &gt;</text>
</g>
<!-- IComparable -->
<g id="node4" class="node">
<title>IComparable</title>
<path fill="#fef000" stroke="#ffb900" d="M301.69,-36C301.69,-36 237.31,-36 237.31,-36 231.31,-36 225.31,-30 225.31,-24 225.31,-24 225.31,-12 225.31,-12 225.31,-6 231.31,0 237.31,0 237.31,0 301.69,0 301.69,0 307.69,0 313.69,-6 313.69,-12 313.69,-12 313.69,-24 313.69,-24 313.69,-30 307.69,-36 301.69,-36"/>
<text text-anchor="middle" x="269.5" y="-14.4" font-family="Helvetica,sans-Serif" font-weight="bold" font-size="12.00">IComparable</text>
</g>
<!-- IOperatorComparable&#45;&gt;IComparable -->
<g id="edge2" class="edge">
<title>IOperatorComparable&#45;&gt;IComparable</title>
<path fill="none" stroke="#505050" stroke-width="1.5" d="M269.5,-64.29C269.5,-54.85 269.5,-44.64 269.5,-36.31"/>
<polygon fill="#505050" stroke="#505050" stroke-width="1.5" points="266.88,-64.49 269.5,-71.99 272.13,-64.49 266.88,-64.49"/>
</g>
<!-- IBinaryInteger -->
<g id="node5" class="node">
<title>IBinaryInteger</title>
<path fill="#ff9349" stroke="#d83b01" d="M818.5,-436C818.5,-436 726.5,-436 726.5,-436 720.5,-436 714.5,-430 714.5,-424 714.5,-424 714.5,-404 714.5,-404 714.5,-398 720.5,-392 726.5,-392 726.5,-392 818.5,-392 818.5,-392 824.5,-392 830.5,-398 830.5,-404 830.5,-404 830.5,-424 830.5,-424 830.5,-430 824.5,-436 818.5,-436"/>
<text text-anchor="start" x="732.16" y="-418.4" font-family="Helvetica,sans-Serif" font-weight="bold" font-size="12.00">IBinaryInteger</text>
<text text-anchor="start" x="726.44" y="-402.8" font-family="Menlo" font-size="9.00">/ % ~ &amp; | ^ &lt;&lt; &gt;&gt;</text>
</g>
<!-- INumeric -->
<g id="node18" class="node">
<title>INumeric</title>
<path fill="#30e5d0" stroke="#008575" d="M408,-276C408,-276 357,-276 357,-276 351,-276 345,-270 345,-264 345,-264 345,-244 345,-244 345,-238 351,-232 357,-232 357,-232 408,-232 408,-232 414,-232 420,-238 420,-244 420,-244 420,-264 420,-264 420,-270 414,-276 408,-276"/>
<text text-anchor="start" x="357.32" y="-258.4" font-family="Helvetica,sans-Serif" font-weight="bold" font-size="12.00">INumeric</text>
<text text-anchor="start" x="380.29" y="-242.8" font-family="Menlo" font-size="9.00">*</text>
</g>
<!-- IBinaryInteger&#45;&gt;INumeric -->
<g id="edge14" class="edge">
<title>IBinaryInteger&#45;&gt;INumeric</title>
<path fill="none" stroke="#505050" stroke-width="1.5" d="M713.12,-388.94C631.75,-355.98 488,-297.74 420.06,-270.22"/>
<polygon fill="#505050" stroke="#505050" stroke-width="1.5" points="712.37,-391.47 720.31,-391.86 714.34,-386.61 712.37,-391.47"/>
</g>
<!-- IFixedWidthInteger -->
<g id="node6" class="node">
<title>IFixedWidthInteger</title>
<path fill="#ff9349" stroke="#d83b01" d="M838,-516C838,-516 731,-516 731,-516 725,-516 719,-510 719,-504 719,-504 719,-484 719,-484 719,-478 725,-472 731,-472 731,-472 838,-472 838,-472 844,-472 850,-478 850,-484 850,-484 850,-504 850,-504 850,-510 844,-516 838,-516"/>
<text text-anchor="start" x="731.05" y="-498.4" font-family="Helvetica,sans-Serif" font-weight="bold" font-size="12.00">IFixedWidthInteger</text>
<text text-anchor="start" x="741.65" y="-482.8" font-family="Menlo" font-size="9.00">BitWidth Min Max</text>
</g>
<!-- IFixedWidthInteger&#45;&gt;IBinaryInteger -->
<g id="edge15" class="edge">
<title>IFixedWidthInteger&#45;&gt;IBinaryInteger</title>
<path fill="none" stroke="#505050" stroke-width="1.5" d="M780.06,-464.11C778.62,-454.79 777.06,-444.65 775.73,-436.02"/>
<polygon fill="#505050" stroke="#505050" stroke-width="1.5" points="777.49,-464.67 781.22,-471.69 782.67,-463.87 777.49,-464.67"/>
</g>
<!-- IUnsignedInteger -->
<g id="node7" class="node">
<title>IUnsignedInteger</title>
<path fill="#ff9349" stroke="#d83b01" d="M970.51,-512C970.51,-512 880.49,-512 880.49,-512 874.49,-512 868.49,-506 868.49,-500 868.49,-500 868.49,-488 868.49,-488 868.49,-482 874.49,-476 880.49,-476 880.49,-476 970.51,-476 970.51,-476 976.51,-476 982.51,-482 982.51,-488 982.51,-488 982.51,-500 982.51,-500 982.51,-506 976.51,-512 970.51,-512"/>
<text text-anchor="middle" x="925.5" y="-490.4" font-family="Helvetica,sans-Serif" font-weight="bold" font-size="12.00">IUnsignedInteger</text>
</g>
<!-- IUnsignedInteger&#45;&gt;IBinaryInteger -->
<g id="edge16" class="edge">
<title>IUnsignedInteger&#45;&gt;IBinaryInteger</title>
<path fill="none" stroke="#505050" stroke-width="1.5" d="M884.99,-472.35C863.05,-461.16 835.99,-447.37 813.91,-436.11"/>
<polygon fill="#505050" stroke="#505050" stroke-width="1.5" points="884.05,-474.81 891.92,-475.88 886.43,-470.14 884.05,-474.81"/>
</g>
<!-- ISignedInteger -->
<g id="node8" class="node">
<title>ISignedInteger</title>
<path fill="#ff9349" stroke="#d83b01" d="M689.34,-512C689.34,-512 613.66,-512 613.66,-512 607.66,-512 601.66,-506 601.66,-500 601.66,-500 601.66,-488 601.66,-488 601.66,-482 607.66,-476 613.66,-476 613.66,-476 689.34,-476 689.34,-476 695.34,-476 701.34,-482 701.34,-488 701.34,-488 701.34,-500 701.34,-500 701.34,-506 695.34,-512 689.34,-512"/>
<text text-anchor="middle" x="651.5" y="-490.4" font-family="Helvetica,sans-Serif" font-weight="bold" font-size="12.00">ISignedInteger</text>
</g>
<!-- ISignedInteger&#45;&gt;IBinaryInteger -->
<g id="edge17" class="edge">
<title>ISignedInteger&#45;&gt;IBinaryInteger</title>
<path fill="none" stroke="#505050" stroke-width="1.5" d="M684.64,-471.64C701.72,-460.63 722.48,-447.25 739.53,-436.25"/>
<polygon fill="#505050" stroke="#505050" stroke-width="1.5" points="682.94,-469.61 678.05,-475.88 685.78,-474.03 682.94,-469.61"/>
</g>
<!-- ISignedNumeric -->
<g id="node19" class="node">
<title>ISignedNumeric</title>
<path fill="#30e5d0" stroke="#008575" d="M428,-356C428,-356 337,-356 337,-356 331,-356 325,-350 325,-344 325,-344 325,-324 325,-324 325,-318 331,-312 337,-312 337,-312 428,-312 428,-312 434,-312 440,-318 440,-324 440,-324 440,-344 440,-344 440,-350 434,-356 428,-356"/>
<text text-anchor="start" x="337.32" y="-338.4" font-family="Helvetica,sans-Serif" font-weight="bold" font-size="12.00">ISignedNumeric</text>
<text text-anchor="start" x="364.04" y="-322.8" font-family="Menlo" font-size="9.00">unary &#45;</text>
</g>
<!-- ISignedInteger&#45;&gt;ISignedNumeric -->
<g id="edge18" class="edge">
<title>ISignedInteger&#45;&gt;ISignedNumeric</title>
<path fill="none" stroke="#505050" stroke-width="1.5" d="M657.36,-468.15C661.12,-445.56 662.39,-412.7 644.5,-392 618.32,-361.72 509.05,-346.4 440.16,-339.6"/>
<polygon fill="#505050" stroke="#505050" stroke-width="1.5" points="654.76,-467.82 655.96,-475.67 659.92,-468.78 654.76,-467.82"/>
</g>
<!-- IExpressibleByFloatLiteral -->
<g id="node9" class="node">
<title>IExpressibleByFloatLiteral</title>
<path fill="#50e6ff" stroke="#0078d4" d="M623.5,-436C623.5,-436 473.5,-436 473.5,-436 467.5,-436 461.5,-430 461.5,-424 461.5,-424 461.5,-404 461.5,-404 461.5,-398 467.5,-392 473.5,-392 473.5,-392 623.5,-392 623.5,-392 629.5,-392 635.5,-398 635.5,-404 635.5,-404 635.5,-424 635.5,-424 635.5,-430 629.5,-436 623.5,-436"/>
<text text-anchor="start" x="473.14" y="-418.4" font-family="Helvetica,sans-Serif" font-weight="bold" font-size="12.00">IExpressibleByFloatLiteral</text>
<text text-anchor="start" x="488.9" y="-402.8" font-family="Menlo" font-size="9.00">implicit TSelf(double)</text>
</g>
<!-- IFloatingPoint -->
<g id="node10" class="node">
<title>IFloatingPoint</title>
<path fill="#50e6ff" stroke="#0078d4" d="M431,-436C431,-436 334,-436 334,-436 328,-436 322,-430 322,-424 322,-424 322,-404 322,-404 322,-398 328,-392 334,-392 334,-392 431,-392 431,-392 437,-392 443,-398 443,-404 443,-404 443,-424 443,-424 443,-430 437,-436 431,-436"/>
<text text-anchor="start" x="343.01" y="-418.4" font-family="Helvetica,sans-Serif" font-weight="bold" font-size="12.00">IFloatingPoint</text>
<text text-anchor="start" x="334.23" y="-402.8" font-family="Menlo" font-size="9.00">/ % NaN PI Epsilon</text>
</g>
<!-- IFloatingPoint&#45;&gt;ISignedNumeric -->
<g id="edge19" class="edge">
<title>IFloatingPoint&#45;&gt;ISignedNumeric</title>
<path fill="none" stroke="#505050" stroke-width="1.5" d="M382.5,-384.11C382.5,-374.79 382.5,-364.65 382.5,-356.02"/>
<polygon fill="#505050" stroke="#505050" stroke-width="1.5" points="379.88,-384.19 382.5,-391.69 385.13,-384.19 379.88,-384.19"/>
</g>
<!-- IBinaryFloatingPoint -->
<g id="node11" class="node">
<title>IBinaryFloatingPoint</title>
<path fill="#50e6ff" stroke="#0078d4" d="M501,-516C501,-516 306,-516 306,-516 300,-516 294,-510 294,-504 294,-504 294,-484 294,-484 294,-478 300,-472 306,-472 306,-472 501,-472 501,-472 507,-472 513,-478 513,-484 513,-484 513,-504 513,-504 513,-510 507,-516 501,-516"/>
<text text-anchor="start" x="345.33" y="-498.4" font-family="Helvetica,sans-Serif" font-weight="bold" font-size="12.00">IBinaryFloatingPoint</text>
<text text-anchor="start" x="306.47" y="-482.8" font-family="Menlo" font-size="9.00">ExponentBitCount SignificandBitCount</text>
</g>
<!-- IBinaryFloatingPoint&#45;&gt;IExpressibleByFloatLiteral -->
<g id="edge20" class="edge">
<title>IBinaryFloatingPoint&#45;&gt;IExpressibleByFloatLiteral</title>
<path fill="none" stroke="#505050" stroke-width="1.5" d="M449.41,-468.3C468.64,-457.96 490.77,-446.06 509.23,-436.12"/>
<polygon fill="#505050" stroke="#505050" stroke-width="1.5" points="448.1,-466.03 442.74,-471.89 450.59,-470.65 448.1,-466.03"/>
</g>
<!-- IBinaryFloatingPoint&#45;&gt;IFloatingPoint -->
<g id="edge21" class="edge">
<title>IBinaryFloatingPoint&#45;&gt;IFloatingPoint</title>
<path fill="none" stroke="#505050" stroke-width="1.5" d="M395.8,-464.39C393.27,-455 390.51,-444.74 388.16,-436.02"/>
<polygon fill="#505050" stroke="#505050" stroke-width="1.5" points="393.28,-465.13 397.76,-471.69 398.35,-463.76 393.28,-465.13"/>
</g>
<!-- IReal -->
<g id="node12" class="node">
<title>IReal</title>
<path fill="#d59dff" stroke="#8661c5" d="M263.5,-512C263.5,-512 233.5,-512 233.5,-512 227.5,-512 221.5,-506 221.5,-500 221.5,-500 221.5,-488 221.5,-488 221.5,-482 227.5,-476 233.5,-476 233.5,-476 263.5,-476 263.5,-476 269.5,-476 275.5,-482 275.5,-488 275.5,-488 275.5,-500 275.5,-500 275.5,-506 269.5,-512 263.5,-512"/>
<text text-anchor="middle" x="248.5" y="-490.4" font-family="Helvetica,sans-Serif" font-weight="bold" font-size="12.00">IReal</text>
</g>
<!-- IReal&#45;&gt;IFloatingPoint -->
<g id="edge4" class="edge">
<title>IReal&#45;&gt;IFloatingPoint</title>
<path fill="none" stroke="#505050" stroke-width="1.5" d="M282.32,-473.27C283.05,-472.84 283.78,-472.42 284.5,-472 304.91,-460.11 327.72,-446.84 346.19,-436.1"/>
<polygon fill="#505050" stroke="#505050" stroke-width="1.5" points="280.78,-471.13 275.62,-477.17 283.43,-475.66 280.78,-471.13"/>
</g>
<!-- IAlgebraicField -->
<g id="node13" class="node">
<title>IAlgebraicField</title>
<path fill="#d59dff" stroke="#8661c5" d="M291.5,-436C291.5,-436 205.5,-436 205.5,-436 199.5,-436 193.5,-430 193.5,-424 193.5,-424 193.5,-404 193.5,-404 193.5,-398 199.5,-392 205.5,-392 205.5,-392 291.5,-392 291.5,-392 297.5,-392 303.5,-398 303.5,-404 303.5,-404 303.5,-424 303.5,-424 303.5,-430 297.5,-436 291.5,-436"/>
<text text-anchor="start" x="205.49" y="-418.4" font-family="Helvetica,sans-Serif" font-weight="bold" font-size="12.00">IAlgebraicField</text>
<text text-anchor="start" x="245.79" y="-402.8" font-family="Menlo" font-size="9.00">/</text>
</g>
<!-- IReal&#45;&gt;IAlgebraicField -->
<g id="edge5" class="edge">
<title>IReal&#45;&gt;IAlgebraicField</title>
<path fill="none" stroke="#505050" stroke-width="1.5" d="M248.5,-468.17C248.5,-457.86 248.5,-446.03 248.5,-436.15"/>
<polygon fill="#505050" stroke="#505050" stroke-width="1.5" points="245.88,-468.19 248.5,-475.69 251.13,-468.19 245.88,-468.19"/>
</g>
<!-- IRealFunctions -->
<g id="node14" class="node">
<title>IRealFunctions</title>
<path fill="#d59dff" stroke="#8661c5" d="M163,-436C163,-436 12,-436 12,-436 6,-436 0,-430 0,-424 0,-424 0,-404 0,-404 0,-398 6,-392 12,-392 12,-392 163,-392 163,-392 169,-392 175,-398 175,-404 175,-404 175,-424 175,-424 175,-430 169,-436 163,-436"/>
<text text-anchor="start" x="45" y="-418.4" font-family="Helvetica,sans-Serif" font-weight="bold" font-size="12.00">IRealFunctions</text>
<text text-anchor="start" x="12.14" y="-402.8" font-family="Menlo" font-size="9.00">atan2 hypot gamma log2 log10</text>
</g>
<!-- IReal&#45;&gt;IRealFunctions -->
<g id="edge6" class="edge">
<title>IReal&#45;&gt;IRealFunctions</title>
<path fill="none" stroke="#505050" stroke-width="1.5" d="M214.26,-476.41C189.98,-464.65 157.2,-448.77 131.06,-436.1"/>
<polygon fill="#505050" stroke="#505050" stroke-width="1.5" points="213.29,-478.86 221.19,-479.77 215.58,-474.14 213.29,-478.86"/>
</g>
<!-- IAlgebraicField&#45;&gt;ISignedNumeric -->
<g id="edge3" class="edge">
<title>IAlgebraicField&#45;&gt;ISignedNumeric</title>
<path fill="none" stroke="#505050" stroke-width="1.5" d="M291.63,-387.9C309.23,-377.65 329.37,-365.93 346.21,-356.12"/>
<polygon fill="#505050" stroke="#505050" stroke-width="1.5" points="289.92,-385.85 284.76,-391.89 292.56,-390.39 289.92,-385.85"/>
</g>
<!-- IElementaryFunctions -->
<g id="node15" class="node">
<title>IElementaryFunctions</title>
<path fill="#d59dff" stroke="#8661c5" d="M241.5,-276C241.5,-276 79.5,-276 79.5,-276 73.5,-276 67.5,-270 67.5,-264 67.5,-264 67.5,-244 67.5,-244 67.5,-238 73.5,-232 79.5,-232 79.5,-232 241.5,-232 241.5,-232 247.5,-232 253.5,-238 253.5,-244 253.5,-244 253.5,-264 253.5,-264 253.5,-270 247.5,-276 241.5,-276"/>
<text text-anchor="start" x="97.82" y="-258.4" font-family="Helvetica,sans-Serif" font-weight="bold" font-size="12.00">IElementaryFunctions</text>
<text text-anchor="start" x="79.22" y="-242.8" font-family="Menlo" font-size="9.00">exp a?(sin|cos|tan)h? pow sqrt</text>
</g>
<!-- IRealFunctions&#45;&gt;IElementaryFunctions -->
<g id="edge8" class="edge">
<title>IRealFunctions&#45;&gt;IElementaryFunctions</title>
<path fill="none" stroke="#505050" stroke-width="1.5" d="M100.64,-384.57C115.03,-353.42 137.78,-304.17 150.69,-276.22"/>
<polygon fill="#505050" stroke="#505050" stroke-width="1.5" points="98.11,-383.78 97.35,-391.69 102.87,-385.98 98.11,-383.78"/>
</g>
<!-- IAdditiveArithmetic -->
<g id="node16" class="node">
<title>IAdditiveArithmetic</title>
<path fill="#30e5d0" stroke="#008575" d="M244.5,-196C244.5,-196 134.5,-196 134.5,-196 128.5,-196 122.5,-190 122.5,-184 122.5,-184 122.5,-164 122.5,-164 122.5,-158 128.5,-152 134.5,-152 134.5,-152 244.5,-152 244.5,-152 250.5,-152 256.5,-158 256.5,-164 256.5,-164 256.5,-184 256.5,-184 256.5,-190 250.5,-196 244.5,-196"/>
<text text-anchor="start" x="134.49" y="-178.4" font-family="Helvetica,sans-Serif" font-weight="bold" font-size="12.00">IAdditiveArithmetic</text>
<text text-anchor="start" x="167.83" y="-162.8" font-family="Menlo" font-size="9.00">Zero + &#45;</text>
</g>
<!-- IElementaryFunctions&#45;&gt;IAdditiveArithmetic -->
<g id="edge7" class="edge">
<title>IElementaryFunctions&#45;&gt;IAdditiveArithmetic</title>
<path fill="none" stroke="#505050" stroke-width="1.5" d="M171.14,-224.39C174.63,-215 178.44,-204.74 181.69,-196.02"/>
<polygon fill="#505050" stroke="#505050" stroke-width="1.5" points="168.58,-223.74 168.42,-231.69 173.5,-225.57 168.58,-223.74"/>
</g>
<!-- IAdditiveArithmetic&#45;&gt;IOperatorEquatable -->
<g id="edge9" class="edge">
<title>IAdditiveArithmetic&#45;&gt;IOperatorEquatable</title>
<path fill="none" stroke="#505050" stroke-width="1.5" d="M162.48,-146.33C152.46,-136.43 141.23,-125.34 131.79,-116.02"/>
<polygon fill="#505050" stroke="#505050" stroke-width="1.5" points="160.73,-148.28 167.91,-151.69 164.42,-144.55 160.73,-148.28"/>
</g>
<!-- IAdditiveArithmetic&#45;&gt;IOperatorComparable -->
<g id="edge10" class="edge">
<title>IAdditiveArithmetic&#45;&gt;IOperatorComparable</title>
<path fill="none" stroke="#505050" stroke-width="1.5" d="M216.86,-146.33C227.01,-136.43 238.38,-125.34 247.94,-116.02"/>
<polygon fill="#505050" stroke="#505050" stroke-width="1.5" points="214.9,-144.57 211.36,-151.69 218.56,-148.33 214.9,-144.57"/>
</g>
<!-- IExpressibleByIntegerLiteral -->
<g id="node17" class="node">
<title>IExpressibleByIntegerLiteral</title>
<path fill="#30e5d0" stroke="#008575" d="M463.5,-196C463.5,-196 301.5,-196 301.5,-196 295.5,-196 289.5,-190 289.5,-184 289.5,-184 289.5,-164 289.5,-164 289.5,-158 295.5,-152 301.5,-152 301.5,-152 463.5,-152 463.5,-152 469.5,-152 475.5,-158 475.5,-164 475.5,-164 475.5,-184 475.5,-184 475.5,-190 469.5,-196 463.5,-196"/>
<text text-anchor="start" x="301.47" y="-178.4" font-family="Helvetica,sans-Serif" font-weight="bold" font-size="12.00">IExpressibleByIntegerLiteral</text>
<text text-anchor="start" x="331.02" y="-162.8" font-family="Menlo" font-size="9.00">implicit TSelf(int)</text>
</g>
<!-- INumeric&#45;&gt;IAdditiveArithmetic -->
<g id="edge11" class="edge">
<title>INumeric&#45;&gt;IAdditiveArithmetic</title>
<path fill="none" stroke="#505050" stroke-width="1.5" d="M337.73,-234.91C309.05,-223.31 271.7,-208.22 241.68,-196.09"/>
<polygon fill="#505050" stroke="#505050" stroke-width="1.5" points="336.89,-237.4 344.83,-237.78 338.86,-232.53 336.89,-237.4"/>
</g>
<!-- INumeric&#45;&gt;IExpressibleByIntegerLiteral -->
<g id="edge12" class="edge">
<title>INumeric&#45;&gt;IExpressibleByIntegerLiteral</title>
<path fill="none" stroke="#505050" stroke-width="1.5" d="M382.5,-224.11C382.5,-214.79 382.5,-204.65 382.5,-196.02"/>
<polygon fill="#505050" stroke="#505050" stroke-width="1.5" points="379.88,-224.19 382.5,-231.69 385.13,-224.19 379.88,-224.19"/>
</g>
<!-- ISignedNumeric&#45;&gt;INumeric -->
<g id="edge13" class="edge">
<title>ISignedNumeric&#45;&gt;INumeric</title>
<path fill="none" stroke="#505050" stroke-width="1.5" d="M382.5,-304.11C382.5,-294.79 382.5,-284.65 382.5,-276.02"/>
<polygon fill="#505050" stroke="#505050" stroke-width="1.5" points="379.88,-304.19 382.5,-311.69 385.13,-304.19 379.88,-304.19"/>
</g>
<!-- Double -->
<g id="node20" class="node">
<title>Double</title>
<path fill="#9bf00b" stroke="#107c10" d="M364.34,-588C364.34,-588 288.66,-588 288.66,-588 282.66,-588 276.66,-582 276.66,-576 276.66,-576 276.66,-564 276.66,-564 276.66,-558 282.66,-552 288.66,-552 288.66,-552 364.34,-552 364.34,-552 370.34,-552 376.34,-558 376.34,-564 376.34,-564 376.34,-576 376.34,-576 376.34,-582 370.34,-588 364.34,-588"/>
<text text-anchor="middle" x="326.5" y="-566.4" font-family="Helvetica,sans-Serif" font-weight="bold" font-size="12.00">Single, Double</text>
</g>
<!-- Double&#45;&gt;IBinaryFloatingPoint -->
<g id="edge22" class="edge">
<title>Double&#45;&gt;IBinaryFloatingPoint</title>
<path fill="none" stroke="#505050" stroke-width="1.5" d="M349.78,-546.63C359.89,-536.91 371.67,-525.59 381.62,-516.03"/>
<polygon fill="#505050" stroke="#505050" stroke-width="1.5" points="347.95,-544.75 344.36,-551.84 351.59,-548.53 347.95,-544.75"/>
</g>
<!-- Double&#45;&gt;IReal -->
<g id="edge23" class="edge">
<title>Double&#45;&gt;IReal</title>
<path fill="none" stroke="#505050" stroke-width="1.5" d="M302.87,-546.58C291.18,-535.49 277.3,-522.33 266.49,-512.07"/>
<polygon fill="#505050" stroke="#505050" stroke-width="1.5" points="301.16,-548.58 308.41,-551.84 304.77,-544.77 301.16,-548.58"/>
</g>
<!-- Int32 -->
<g id="node21" class="node">
<title>Int32</title>
<path fill="#9bf00b" stroke="#107c10" d="M739.54,-588C739.54,-588 609.46,-588 609.46,-588 603.46,-588 597.46,-582 597.46,-576 597.46,-576 597.46,-564 597.46,-564 597.46,-558 603.46,-552 609.46,-552 609.46,-552 739.54,-552 739.54,-552 745.54,-552 751.54,-558 751.54,-564 751.54,-564 751.54,-576 751.54,-576 751.54,-582 745.54,-588 739.54,-588"/>
<text text-anchor="middle" x="674.5" y="-566.4" font-family="Helvetica,sans-Serif" font-weight="bold" font-size="12.00">SByte, Int16, Int32, Int64</text>
</g>
<!-- Int32&#45;&gt;IFixedWidthInteger -->
<g id="edge24" class="edge">
<title>Int32&#45;&gt;IFixedWidthInteger</title>
<path fill="none" stroke="#505050" stroke-width="1.5" d="M706.56,-547.43C721.26,-537.54 738.63,-525.86 753.24,-516.03"/>
<polygon fill="#505050" stroke="#505050" stroke-width="1.5" points="704.77,-545.47 700.01,-551.84 707.7,-549.83 704.77,-545.47"/>
</g>
<!-- Int32&#45;&gt;ISignedInteger -->
<g id="edge25" class="edge">
<title>Int32&#45;&gt;ISignedInteger</title>
<path fill="none" stroke="#505050" stroke-width="1.5" d="M666.87,-544.44C663.57,-533.83 659.79,-521.67 656.81,-512.07"/>
<polygon fill="#505050" stroke="#505050" stroke-width="1.5" points="664.43,-545.45 669.17,-551.84 669.45,-543.9 664.43,-545.45"/>
</g>
<!-- UInt32 -->
<g id="node22" class="node">
<title>UInt32</title>
<path fill="#9bf00b" stroke="#107c10" d="M975.54,-588C975.54,-588 827.46,-588 827.46,-588 821.46,-588 815.46,-582 815.46,-576 815.46,-576 815.46,-564 815.46,-564 815.46,-558 821.46,-552 827.46,-552 827.46,-552 975.54,-552 975.54,-552 981.54,-552 987.54,-558 987.54,-564 987.54,-564 987.54,-576 987.54,-576 987.54,-582 981.54,-588 975.54,-588"/>
<text text-anchor="middle" x="901.5" y="-566.4" font-family="Helvetica,sans-Serif" font-weight="bold" font-size="12.00">Byte, UInt16, UInt32, UInt64</text>
</g>
<!-- UInt32&#45;&gt;IFixedWidthInteger -->
<g id="edge26" class="edge">
<title>UInt32&#45;&gt;IFixedWidthInteger</title>
<path fill="none" stroke="#505050" stroke-width="1.5" d="M867.82,-547.7C852.09,-537.75 833.43,-525.95 817.75,-516.03"/>
<polygon fill="#505050" stroke="#505050" stroke-width="1.5" points="866.62,-550.05 874.36,-551.84 869.43,-545.61 866.62,-550.05"/>
</g>
<!-- UInt32&#45;&gt;IUnsignedInteger -->
<g id="edge27" class="edge">
<title>UInt32&#45;&gt;IUnsignedInteger</title>
<path fill="none" stroke="#505050" stroke-width="1.5" d="M909.46,-544.44C912.91,-533.83 916.85,-521.67 919.96,-512.07"/>
<polygon fill="#505050" stroke="#505050" stroke-width="1.5" points="906.88,-543.89 907.07,-551.84 911.88,-545.51 906.88,-543.89"/>
</g>
</g>
</svg>
